# xmcd CD database file
#
# Track frame offsets:
#	150
#	12800
#	25836
#	44799
#	57203
#	69453
#	86046
#	96955
#	117681
#	130209
#	142976
#	155332
#	166931
#	177795
#
# Disc length: 2557 seconds
#
# Revision: 0
# Processed by: cddbd v1.5.2PL0 Copyright (c) Steve Scherf et al.
# Submitted via: ACXtractor (MTCDDB.DLL V2003.07.15)
#
DISCID=bc09fb0e
DTITLE=Brian Letton - The Country Classics
DYEAR=2015
DGENRE=Country
TTITLE0=Sea of Heartbreak
TTITLE1=Still
TTITLE2=Old Dogs Children and Watermelon Wine
TTITLE3=Ramblin' Rose
TTITLE4=Make the World go Away
TTITLE5=For the Good Times
TTITLE6=Those Lazy Hazy Crazy Days of Summer
TTITLE7=Some Days are Diamonds
TTITLE8=Oh Lonesome Me
TTITLE9=Talk Back Tremblin' Lips
TTITLE10=Roses are Red
TTITLE11=Help Me Make it Through the Night
TTITLE12=Please Help Me I'm Falling
TTITLE13=Heartaches by the Number
EXTD=ID3G:   2 YEAR: 2015
EXTT0=
EXTT1=
EXTT2=
EXTT3=
EXTT4=
EXTT5=
EXTT6=
EXTT7=
EXTT8=
EXTT9=
EXTT10=
EXTT11=
EXTT12=
EXTT13=
PLAYORDER=
